<mxfile host="app.diagrams.net" modified="2022-04-15T00:13:10.071Z" agent="5.0 (Macintosh; Intel Mac OS X 10_15_7) AppleWebKit/537.36 (KHTML, like Gecko) Chrome/100.0.4896.88 Safari/537.36" etag="34JUPi_6cihc9DJXWnJH" version="17.4.4" type="github">
  <diagram id="4cCKLbDu2Ntrc-mVVSZb" name="Page-1">
    <mxGraphModel dx="1226" dy="1129" grid="1" gridSize="10" guides="1" tooltips="1" connect="1" arrows="1" fold="1" page="1" pageScale="1" pageWidth="850" pageHeight="1100" math="0" shadow="0">
      <root>
        <mxCell id="0" />
        <mxCell id="1" parent="0" />
        <mxCell id="wFmW60XCWzOWadYCHSVF-1" value="" style="shape=mxgraph.cisco.computers_and_peripherals.web_browser;html=1;pointerEvents=1;dashed=0;fillColor=#036897;strokeColor=#ffffff;strokeWidth=2;verticalLabelPosition=bottom;verticalAlign=top;align=center;outlineConnect=0;" vertex="1" parent="1">
          <mxGeometry x="300" y="90" width="62" height="64" as="geometry" />
        </mxCell>
        <mxCell id="wFmW60XCWzOWadYCHSVF-2" value="" style="aspect=fixed;html=1;points=[];align=center;image;fontSize=12;image=img/lib/azure2/networking/DNS_Zones.svg;" vertex="1" parent="1">
          <mxGeometry x="140" y="90" width="64" height="64" as="geometry" />
        </mxCell>
        <mxCell id="wFmW60XCWzOWadYCHSVF-3" value="" style="verticalLabelPosition=bottom;html=1;verticalAlign=top;align=center;strokeColor=none;fillColor=#00BEF2;shape=mxgraph.azure.load_balancer_generic;pointerEvents=1;" vertex="1" parent="1">
          <mxGeometry x="312.25" y="240" width="37.5" height="50" as="geometry" />
        </mxCell>
        <mxCell id="wFmW60XCWzOWadYCHSVF-4" value="" style="shape=image;html=1;verticalAlign=top;verticalLabelPosition=bottom;labelBackgroundColor=#ffffff;imageAspect=0;aspect=fixed;image=https://cdn2.iconfinder.com/data/icons/whcompare-isometric-web-hosting-servers/50/server-transfer-128.png" vertex="1" parent="1">
          <mxGeometry x="267.75" y="370" width="128" height="128" as="geometry" />
        </mxCell>
        <mxCell id="wFmW60XCWzOWadYCHSVF-5" value="Post Service" style="rounded=1;whiteSpace=wrap;html=1;" vertex="1" parent="1">
          <mxGeometry x="84" y="590" width="120" height="60" as="geometry" />
        </mxCell>
        <mxCell id="wFmW60XCWzOWadYCHSVF-6" value="Fanout Service" style="rounded=1;whiteSpace=wrap;html=1;" vertex="1" parent="1">
          <mxGeometry x="271.75" y="590" width="120" height="60" as="geometry" />
        </mxCell>
        <mxCell id="wFmW60XCWzOWadYCHSVF-7" value="Notification Service" style="rounded=1;whiteSpace=wrap;html=1;" vertex="1" parent="1">
          <mxGeometry x="460" y="590" width="120" height="60" as="geometry" />
        </mxCell>
        <mxCell id="wFmW60XCWzOWadYCHSVF-8" value="web browser" style="text;html=1;align=center;verticalAlign=middle;resizable=0;points=[];autosize=1;strokeColor=none;fillColor=none;" vertex="1" parent="1">
          <mxGeometry x="291" y="154" width="80" height="20" as="geometry" />
        </mxCell>
        <mxCell id="wFmW60XCWzOWadYCHSVF-9" value="load balancer" style="text;html=1;align=center;verticalAlign=middle;resizable=0;points=[];autosize=1;strokeColor=none;fillColor=none;" vertex="1" parent="1">
          <mxGeometry x="286" y="300" width="90" height="20" as="geometry" />
        </mxCell>
        <mxCell id="wFmW60XCWzOWadYCHSVF-10" value="web servers" style="text;html=1;align=center;verticalAlign=middle;resizable=0;points=[];autosize=1;strokeColor=none;fillColor=none;" vertex="1" parent="1">
          <mxGeometry x="291" y="500" width="80" height="20" as="geometry" />
        </mxCell>
      </root>
    </mxGraphModel>
  </diagram>
</mxfile>
